# AST/ASF file generated using VICON BodyLanguage
# -----------------------------------------------
:version 1.10
:name VICON
:units
  mass 1.0
  length 0.45
  angle deg
:documentation
   .ast/.asf automatically generated from VICON data using
   VICON BodyBuilder and BodyLanguage model FoxedUp or BRILLIANT.MOD
:root
   order TX TY TZ RX RY RZ
   axis XYZ
   position 0 0 0  
   orientation 0 0 0 
:bonedata
  begin
     id 1 
     name lhipjoint
     direction 0.653368 -0.678499 0.335782 
     length 2.51848 
     axis 0 0 0  XYZ
  end
  begin
     id 2 
     name lfemur
     direction 0.34202 -0.939693 0  
     length 6.57749  
     axis 0 0 20  XYZ
    dof rx ry rz
    limits (-160.0 20.0)
           (-70.0 70.0)
           (-60.0 70.0)
  end
  begin
     id 3 
     name ltibia
     direction 0.34202 -0.939693 0   
     length 7.94618   
     axis 0 0 20   XYZ
    dof rx
    limits (-10.0 170.0)
  end
  begin
     id 4 
     name lfoot
     direction 0.0811271 -0.222895 0.971461   
     length 2.31339   
     axis -90 7.62852e-016 20   XYZ
    dof rx rz
    limits (-45.0 90.0)
           (-70.0 20.0)
  end
  begin
     id 5 
     name ltoes
     direction 1.53568e-011 -4.21885e-011 1   
     length 1.15935   
     axis -90 7.62852e-016 20   XYZ
    dof rx
    limits (-90.0 20.0)
  end
  begin
     id 6 
     name rhipjoint
     direction -0.640058 -0.688614 0.340788   
     length 2.48149  
     axis 0 0 0  XYZ 
  end
  begin
     id 7 
     name rfemur
     direction -0.34202 -0.939693 0   
     length 6.57875   
     axis 0 0 -20   XYZ
    dof rx ry rz
    limits (-160.0 20.0)
           (-70.0 70.0)
           (-70.0 60.0)
  end
  begin
     id 8 
     name rtibia
     direction -0.34202 -0.939693 0   
     length 7.977   
     axis 0 0 -20   XYZ
    dof rx
    limits (-10.0 170.0)
 end
 begin
     id 9 
     name rfoot
     direction -0.0979793 -0.269196 0.958089   
     length 2.19857  
     axis -90 -7.62852e-016 -20   XYZ
    dof rx rz
    limits (-45.0 90.0)
           (-20.0 70.0)
  end
  begin
     id 10 
     name rtoes
     direction -1.53556e-011 -4.21868e-011 1   
     length 1.09838   
     axis -90 -7.62852e-016 -20   XYZ
    dof rx
    limits (-90.0 20.0)
  end
  begin
     id 11 
     name lowerback
     direction 0.0149039 0.998517 -0.0523597   
     length 2.10809   
     axis 0 0 0   XYZ
    dof rx ry rz
    limits (-20.0 45.0)
           (-30.0 30.0)
           (-30.0 30.0)
  end
  begin
     id 12 
     name upperback
     direction -0.00882659 0.999418 -0.0329624   
     length 2.1102   
     axis 0 0 0   XYZ
    dof rx ry rz
    limits (-20.0 45.0)
           (-30.0 30.0)
           (-30.0 30.0)
  end
  begin
     id 13 
     name thorax
     direction -0.0165585 0.999826 -0.0085833   
     length 2.11039   
     axis 0 0 0   XYZ
    dof rx ry rz
    limits (-20.0 45.0)
           (-30.0 30.0)
           (-30.0 30.0)
  end
  begin
     id 14 
     name lowerneck
     direction -0.0130877 0.999911 0.00260353   
     length 1.73253   
     axis 0 0 0   XYZ
    dof rx ry rz
    limits (-20.0 45.0)
           (-30.0 30.0)
           (-30.0 30.0)
  end
  begin
     id 15 
     name upperneck
     direction -0.0348454 0.928205 -0.370435   
     length 1.66692   
     axis 0 0 0   XYZ
    dof rx ry rz
    limits (-20.0 45.0)
           (-30.0 30.0)
           (-30.0 30.0)
  end
  begin
     id 16
     name head
     direction -0.00807754 0.992494 -0.122026  
     length 1.72765  
     axis 0 0 0   XYZ
    dof rx ry rz
    limits (-20.0 45.0)
           (-30.0 30.0)
           (-30.0 30.0)
  end
  begin
     id 17 
     name lclavicle
     direction 0.987582 0.144023 0.0627671  
     length 3.49235  
     axis 0 0 0   XYZ
    dof ry rz
    limits (-20.0 10.0)
           (0.0 20.0)
  end
  begin
     id 18 
     name lhumerus
     direction 1 -4.48958e-011 -1.45183e-018   
     length 5.41917   
     axis 180 -30 -90   XYZ
    dof rx ry rz
    limits (-60.0 90.0)
           (-90.0 90.0)
           (-90.0 90.0)
  end
  begin
     id 19
     name lradius
     direction 1 -4.48999e-011 5.75106e-027   
     length 2.44373   
     axis 180 -30 -90   XYZ
    dof rx
    limits (-10.0 170.0)
  end
  begin
     id 20
     name lwrist
     direction 1 -4.48987e-011 1.53461e-026   
     length 1.22186   
     axis -1.09697e-014 90 90   XYZ
    dof ry
    limits (-180.0 0.0)
 end
  begin
     id 21 
     name lhand
     direction 1 -4.48881e-011 3.06923e-026   
     length 0.727502   
     axis -1.95843e-014 90 90   XYZ
    dof rx rz
    limits (-90.0 90.0)
           (-45.0 45.0)
  end
  begin
     id 22 
     name lfingers
     direction 1 -4.48907e-011 6.13845e-026   
     length 0.586531   
     axis -3.91686e-014 90 90   XYZ
    dof rx
    limits (0.0 90.0)
  end
  begin
     id 23
     name lthumb
     direction 0.707107 -6.3487e-011 0.707107   
     length 0.842145   
     axis -90 45 2.85299e-015   XYZ
    dof rx rz
    limits (-45.0 45.0)
           (-45.0 45.0)
  end
  begin
     id 24 
     name rclavicle
     direction -0.980998 0.169556 0.0943023   
     length 3.29272  
     axis 0 0 0   XYZ 
    dof ry rz
    limits (-10.0 20.0)
           (-20.0 0.0)
  end
  begin
     id 25 
     name rhumerus
     direction -1 -1.83355e-005 2.45537e-005  
     length 5.58976   
     axis 180 30 90   XYZ
    dof rx ry rz
    limits (-90.0 60.0)
           (-90.0 90.0)
           (-90.0 90.0)
  end
  begin
     id 26 
     name rradius
     direction -1 -4.48967e-011 5.97228e-027   
     length 2.4806   
     axis 180 30 90   XYZ
    dof rx
    limits (-10.0 170.0)
  end
  begin
     id 27 
     name rwrist
     direction -1 -4.48963e-011 1.53461e-026   
     length 1.2403   
     axis -1.09697e-014 -90 -90   XYZ
    dof ry
    limits (-180.0 0.0)
  end
  begin
     id 28
     name rhand
     direction -1 -4.48881e-011 3.06923e-026   
     length 0.816009   
     axis -1.95843e-014 -90 -90   XYZ
    dof rx rz
    limits (-90.0 90.0)
           (-45.0 45.0)
  end
  begin
     id 29
     name rfingers
     direction -1 -4.49018e-011 6.13845e-026   
     length 0.657887   
     axis -3.91686e-014 -90 -90   XYZ
    dof rx
    limits (0.0 90.0)
  end
  begin
     id 30
     name rthumb
     direction -0.707107 -6.34872e-011 0.707107   
     length 0.944599   
     axis -90 -45 -2.85299e-015   XYZ
    dof rx rz
    limits (-45.0 45.0)
           (-45.0 45.0)
  end
:hierarchy
  begin
    root lhipjoint rhipjoint lowerback
    lhipjoint lfemur
    lfemur ltibia
    ltibia lfoot
    lfoot ltoes
    rhipjoint rfemur
    rfemur rtibia
    rtibia rfoot
    rfoot rtoes
    lowerback upperback
    upperback thorax
    thorax lowerneck lclavicle rclavicle
    lowerneck upperneck
    upperneck head
    lclavicle lhumerus
    lhumerus lradius
    lradius lwrist
    lwrist lhand lthumb
    lhand lfingers
    rclavicle rhumerus
    rhumerus rradius
    rradius rwrist
    rwrist rhand rthumb
    rhand rfingers
  end

#!OML:ASF F:\VICON\USERDATA\INSTALL\rory3\rory3.ASF
:FULLY-SPECIFIED
:DEGREES
101
root -0.0531929 16.3265 32.3411 -154.195 -2.66117 -177.81
lowerback -9.98435 3.00511 5.37062
upperback -7.74915 2.67815 -0.219039
thorax -2.22079 0.712806 -3.00285
lowerneck -13.2535 0.945191 -1.40185
upperneck 36.7304 -3.09363 2.55213
head 15.073 -2.4509 0.464495
rclavicle 7.47927e-015 8.94531e-015
rhumerus -46.8326 14.3488 -94.3525
rradius 23.6573
rwrist -6.08347
rhand 20.1995 7.52708
rfingers 7.12502
rthumb 44.7209 -16.0816
lclavicle 7.47927e-015 8.94531e-015
lhumerus -46.2465 -0.484346 76.1683
lradius 27.926
lwrist -0.602031
lhand 24.1777 20.398
lfingers 7.12502
lthumb 48.4052 42.4195
rfemur -36.5134 9.32498 31.1698
rtibia 43.9244
rfoot -60.2994 -31.238
rtoes 35.135
lfemur -60.66 10.3137 -19.1361
ltibia 71.0353
lfoot -18.4047 0.802683
ltoes -33.4754
102
root -0.0716849 16.3345 32.2803 -154.118 -2.71653 -177.736
lowerback -10.0376 2.98172 5.56274
upperback -7.62233 2.64509 -0.218754
thorax -2.05424 0.704501 -3.10977
lowerneck -13.5451 0.946762 -1.55125
upperneck 36.734 -3.0508 2.67547
head 15.1463 -2.41952 0.550088
rclavicle -2.05742e-014 -2.08724e-014
rhumerus -47.3194 16.0174 -95.5925
rradius 25.01
rwrist -5.78148
rhand 19.772 8.10808
rfingers 7.12502
rthumb 44.3226 -15.6534
lclavicle -2.05742e-014 -2.08724e-014
lhumerus -46.3852 -1.23686 76.7553
lradius 29.8573
lwrist -0.773108
lhand 23.9584 20.7633
lfingers 7.12502
lthumb 48.2032 42.8808
rfemur -36.216 9.20054 31.2247
rtibia 43.7256
rfoot -60.1634 -31.3491
rtoes 34.7116
lfemur -61.2556 9.95724 -19.0035
ltibia 69.6158
lfoot -18.6136 -1.29722
ltoes -29.851
103
root -0.0866091 16.3301 32.2201 -154.169 -2.54928 -177.76
lowerback -9.87192 3.09021 5.51983
upperback -7.58654 2.81953 -0.371566
thorax -2.08529 0.797549 -3.23449
lowerneck -13.6213 0.87168 -1.43006
upperneck 36.7609 -3.25635 2.80659
head 15.1868 -2.46908 0.548691
rclavicle -9.91439e-015 2.5842e-015
rhumerus -47.9656 17.2293 -96.8544
rradius 26.2804
rwrist -5.04526
rhand 19.158 8.44055
rfingers 7.12502
rthumb 43.7499 -15.535
lclavicle -9.91439e-015 2.5842e-015
lhumerus -46.9182 -2.65751 77.4504
lradius 32.4628
lwrist -0.834489
lhand 23.6764 21.1622
lfingers 7.12502
lthumb 47.9432 43.4014
rfemur -35.8601 9.29556 31.1143
rtibia 43.5667
rfoot -60.1853 -31.704
rtoes 34.0024
lfemur -61.4956 9.93998 -19.2579
ltibia 68.2684
lfoot -18.9749 -1.83791
ltoes -30.4333
104
root -0.101663 16.3211 32.1583 -154.291 -2.28616 -177.868
lowerback -9.60087 3.27102 5.37408
upperback -7.62531 3.09922 -0.622621
thorax -2.24104 0.93723 -3.40064
lowerneck -13.4845 0.809011 -1.11429
upperneck 36.787 -3.51188 2.88741
head 15.1753 -2.53103 0.483409
rclavicle 2.38542e-014 -1.27222e-014
rhumerus -48.6567 17.784 -97.7276
rradius 27.8165
rwrist -3.93524
rhand 19.1195 8.6496
rfingers 7.12502
rthumb 43.714 -15.3391
lclavicle 2.38542e-014 -1.27222e-014
lhumerus -47.5838 -4.18891 78.026
lradius 35.0649
lwrist -1.38804
lhand 23.482 21.2584
lfingers 7.12502
lthumb 47.7639 43.5807
rfemur -35.4676 9.46196 30.8993
rtibia 43.484
rfoot -60.5037 -31.7132
rtoes 34.1471
lfemur -61.4517 10.1098 -19.7422
ltibia 66.9349
lfoot -19.674 -1.57137
ltoes -33.3921
105
root -0.116712 16.3168 32.0961 -154.451 -1.96049 -177.82
lowerback -9.03421 3.31185 5.33506
upperback -7.73286 3.19796 -0.667453
thorax -2.65443 0.974671 -3.44197
lowerneck -13.4067 0.887315 -0.991915
upperneck 36.8267 -3.46052 2.89899
head 15.1737 -2.49999 0.473674
rclavicle -6.17475e-015 -5.96354e-015
rhumerus -49.5931 18.9668 -98.7157
rradius 29.9117
rwrist -3.13954
rhand 19.6178 7.94981
rfingers 7.12502
rthumb 44.1788 -15.866
lclavicle -6.17475e-015 -5.96354e-015
lhumerus -48.43 -5.02224 78.4386
lradius 37.5583
lwrist -2.09433
lhand 23.1437 21.1869
lfingers 7.12502
lthumb 47.4516 43.6516
rfemur -35.0027 9.62314 30.8602
rtibia 43.3676
rfoot -60.2883 -32.1624
rtoes 33.798
lfemur -61.3713 10.2594 -19.9091
ltibia 65.6492
lfoot -20.1921 -2.24006
ltoes -33.8472
